<svg width="267" height="533" viewBox="0 0 267 533" fill="none" xmlns="http://www.w3.org/2000/svg">
<path d="M118 45.0002L117.963 44.0009L118 45.0002ZM205.476 68.0006C206.028 68.014 206.486 67.5774 206.5 67.0253L206.719 58.0279C206.733 57.4758 206.296 57.0173 205.744 57.0038C205.192 56.9904 204.733 57.427 204.72 57.9791L204.525 65.9768L196.527 65.7816C195.975 65.7681 195.516 66.2047 195.503 66.7569C195.49 67.309 195.926 67.7675 196.478 67.781L205.476 68.0006ZM46.8364 59.4426C60.7574 54.4702 91.156 46.9947 118.037 45.9995L117.963 44.0009C90.844 45.0049 60.2426 52.5303 46.1636 57.5591L46.8364 59.4426ZM118.037 45.9995C141.705 45.1233 160.969 47.9876 175.537 52.3607C190.132 56.7416 199.941 62.6139 204.776 67.6905L206.224 66.3112C201.059 60.8874 190.885 54.8795 176.112 50.4452C161.314 46.0031 141.829 43.1173 117.963 44.0009L118.037 45.9995Z" fill="black"/>
<path d="M50.2031 70.2396C77.8073 64.8576 102.807 62.1667 125.203 62.1667C141.87 62.1667 156.453 64.5972 168.953 69.4583C181.627 74.3194 191.523 80.9167 198.641 89.25C205.932 97.5833 211.314 106.698 214.786 116.594C218.259 126.49 219.995 137.08 219.995 148.365C219.995 151.663 219.821 154.962 219.474 158.26C219.127 161.385 218.78 164.076 218.432 166.333C218.085 168.59 217.304 171.368 216.089 174.667C215.047 177.792 214.266 180.049 213.745 181.438C213.398 182.826 212.356 185.257 210.62 188.729C209.057 192.028 208.016 194.111 207.495 194.979C207.148 195.674 205.845 197.931 203.589 201.75C201.505 205.569 200.377 207.74 200.203 208.26L92.3906 401.75H230.932V433H50.2031V409.823L170.516 193.677C171.036 192.809 172.339 190.552 174.422 186.906C176.679 183.087 178.068 180.656 178.589 179.615C179.109 178.399 180.064 176.229 181.453 173.104C183.016 169.979 183.97 167.462 184.318 165.552C184.839 163.469 185.359 160.865 185.88 157.74C186.401 154.615 186.661 151.49 186.661 148.365C186.661 141.42 185.793 134.997 184.057 129.094C182.321 123.191 179.37 117.462 175.203 111.906C171.036 106.177 164.7 101.663 156.193 98.3646C147.686 95.066 137.356 93.4167 125.203 93.4167C104.196 93.4167 79.1962 96.1076 50.2031 101.49V70.2396Z" fill="#434447"/>
</svg>
