<svg width="365" height="486" viewBox="0 0 365 486" fill="none" xmlns="http://www.w3.org/2000/svg">
<g clip-path="url(#clip0_207_2021)">
<rect width="365" height="486" fill="white"/>
<path d="M112.846 53.9896C75.954 88.2778 57.5078 152.948 57.5078 248C57.5078 343.052 75.954 407.722 112.846 442.01C134.114 461.976 160.806 471.958 192.924 471.958C225.043 471.958 251.735 461.976 273.003 442.01C309.895 407.722 328.341 343.052 328.341 248C328.341 152.948 309.895 88.2778 273.003 53.9896C251.735 34.0243 225.043 24.0416 192.924 24.0416C160.806 24.0416 134.114 34.0243 112.846 53.9896ZM328.341 458.286H321.831C282.334 519.484 235.025 550.083 179.904 550.083C128.688 550.083 85.0686 532.505 49.0443 497.349C-0.868917 447.87 -25.8255 364.753 -25.8255 248C-25.8255 131.247 -0.868917 48.1302 49.0443 -1.349C85.0686 -36.5052 128.688 -54.0834 179.904 -54.0834C235.025 -54.0834 282.334 -23.4844 321.831 37.7135H328.341V-43.6667H411.674V518.833C411.674 593.052 398.437 652.297 371.961 696.568C330.728 765.578 265.841 800.083 177.299 800.083C126.952 800.083 75.737 796.828 23.6537 790.318V712.193C82.2474 718.703 133.463 721.958 177.299 721.958C232.421 721.958 273.22 700.691 299.695 658.156C318.793 627.34 328.341 580.899 328.341 518.833V458.286Z" fill="#434447"/>
</g>
<rect x="1" y="1" width="363" height="484" stroke="black" stroke-width="2"/>
<defs>
<clipPath id="clip0_207_2021">
<rect width="365" height="486" fill="white"/>
</clipPath>
</defs>
</svg>
