<svg width="369" height="35" viewBox="0 0 369 35" fill="none" xmlns="http://www.w3.org/2000/svg">
<rect width="368" height="35" transform="matrix(-1 0 0 1 368.608 0)" fill="black"/>
<path d="M3.23763 5.08333H17.821V28H15.7376V7.03646H5.32096V28H3.23763V5.08333ZM24.0303 12.0332C24.9092 11.393 25.9671 11.0729 27.2041 11.0729C28.4411 11.0729 29.4936 11.393 30.3617 12.0332C31.2406 12.6734 31.8808 13.498 32.2822 14.5072C32.5643 15.2016 32.7434 15.934 32.8193 16.7044C32.8953 17.4748 32.9333 18.4622 32.9333 19.6667C32.9333 20.8711 32.8953 21.8585 32.8193 22.6289C32.7434 23.3993 32.5643 24.1317 32.2822 24.8262C31.8808 25.8353 31.2406 26.6599 30.3617 27.3001C29.4936 27.9403 28.4411 28.2604 27.2041 28.2604C25.9671 28.2604 24.9092 27.9403 24.0303 27.3001C23.1622 26.6599 22.5275 25.8353 22.126 24.8262C21.8439 24.1317 21.6648 23.3993 21.5889 22.6289C21.5129 21.8585 21.4749 20.8711 21.4749 19.6667C21.4749 18.4622 21.5129 17.4748 21.5889 16.7044C21.6648 15.934 21.8439 15.2016 22.126 14.5072C22.5275 13.498 23.1622 12.6734 24.0303 12.0332ZM30.3291 15.1582C29.754 13.7368 28.7123 13.026 27.2041 13.026C25.6959 13.026 24.6542 13.7368 24.0791 15.1582C23.7319 16.0263 23.5583 17.5291 23.5583 19.6667C23.5583 21.8043 23.7319 23.3071 24.0791 24.1751C24.6542 25.5966 25.6959 26.3073 27.2041 26.3073C28.7123 26.3073 29.754 25.5966 30.3291 24.1751C30.6763 23.3071 30.8499 21.8043 30.8499 19.6667C30.8499 17.5291 30.6763 16.0263 30.3291 15.1582ZM40.168 26.0469H47.0039V13.2865H42.8372C42.8264 14.5668 42.7559 15.8526 42.6257 17.1439C42.4954 18.4351 42.2188 19.9162 41.7956 21.5872C41.3832 23.2582 40.8407 24.7448 40.168 26.0469ZM38.0358 26.0469C39.1426 23.8659 39.8696 21.6306 40.2168 19.3411C40.5749 17.0516 40.7539 14.3824 40.7539 11.3333H49.0872V26.0469H51.1706V32.1667H49.0872V28H38.6706V32.1667H36.5872V26.0469H38.0358ZM56.8428 26.0469H63.6787V13.2865H59.512C59.5012 14.5668 59.4307 15.8526 59.3005 17.1439C59.1702 18.4351 58.8936 19.9162 58.4704 21.5872C58.0581 23.2582 57.5155 24.7448 56.8428 26.0469ZM54.7106 26.0469C55.8174 23.8659 56.5444 21.6306 56.8916 19.3411C57.2497 17.0516 57.4287 14.3824 57.4287 11.3333H65.762V26.0469H67.8454V32.1667H65.762V28H55.3454V32.1667H53.262V26.0469H54.7106ZM79.2142 13.5469C78.6717 13.1997 78.0098 13.026 77.2285 13.026C76.4473 13.026 75.7799 13.1997 75.2266 13.5469C74.684 13.8941 74.2934 14.377 74.0547 14.9954C73.8268 15.5163 73.6803 16.4223 73.6152 17.7135H80.8418C80.7767 16.4223 80.6302 15.5163 80.4023 14.9954C80.1636 14.377 79.7676 13.8941 79.2142 13.5469ZM73.9733 11.9844C74.8739 11.3767 75.959 11.0729 77.2285 11.0729C78.498 11.0729 79.5777 11.3767 80.4674 11.9844C81.3681 12.592 81.9974 13.3787 82.3555 14.3444C82.5399 14.811 82.6756 15.3589 82.7624 15.9883C82.86 16.6176 82.9143 17.1764 82.9251 17.6647C82.9468 18.1421 82.9577 18.8095 82.9577 19.6667H73.5827C73.5827 20.4045 73.5881 20.9742 73.599 21.3757C73.6098 21.7663 73.6532 22.2383 73.7292 22.7917C73.816 23.3451 73.9408 23.8062 74.1035 24.1751C74.7329 25.5966 75.883 26.3073 77.554 26.3073C78.8127 26.3073 80.4403 26.1934 82.4368 25.9655V27.9186C80.462 28.1465 78.8344 28.2604 77.554 28.2604C76.2086 28.2604 75.0747 27.9457 74.1523 27.3164C73.23 26.6871 72.5627 25.8678 72.1504 24.8587C71.8683 24.1751 71.6892 23.4427 71.6133 22.6615C71.5373 21.8802 71.4993 20.8819 71.4993 19.6667C71.4993 18.8095 71.5048 18.1421 71.5156 17.6647C71.5373 17.1764 71.5916 16.6176 71.6784 15.9883C71.776 15.3589 71.9171 14.811 72.1016 14.3444C72.4596 13.3787 73.0836 12.592 73.9733 11.9844ZM94.4893 28.2604C93.1004 28.2604 91.9176 27.4954 90.9411 25.9655H90.7783V34.25H88.695V11.3333H90.7783V13.3678H90.9411C91.9176 11.8379 93.1004 11.0729 94.4893 11.0729C95.5635 11.0729 96.5183 11.4147 97.3538 12.0983C98.1893 12.7711 98.797 13.7151 99.1768 14.9303C99.3178 15.3861 99.4209 15.8961 99.486 16.4603C99.562 17.0245 99.6054 17.5074 99.6162 17.9089C99.6271 18.2995 99.6325 18.8854 99.6325 19.6667C99.6325 20.4479 99.6271 21.0393 99.6162 21.4408C99.6054 21.8314 99.562 22.3088 99.486 22.873C99.4209 23.4373 99.3178 23.9473 99.1768 24.403C98.797 25.6183 98.1893 26.5677 97.3538 27.2513C96.5183 27.924 95.5635 28.2604 94.4893 28.2604ZM92.3083 25.6074C92.8183 26.074 93.4367 26.3073 94.1637 26.3073C94.8907 26.3073 95.5038 26.074 96.0029 25.6074C96.5129 25.13 96.8873 24.5386 97.126 23.8333C97.4081 22.9761 97.5492 21.5872 97.5492 19.6667C97.5492 17.7461 97.4081 16.3572 97.126 15.5C96.8873 14.7947 96.5129 14.2088 96.0029 13.7422C95.5038 13.2648 94.8907 13.026 94.1637 13.026C93.4367 13.026 92.8183 13.2648 92.3083 13.7422C91.8091 14.2088 91.4402 14.7947 91.2015 15.5C90.9194 16.3572 90.7783 17.7461 90.7783 19.6667C90.7783 21.5872 90.9194 22.9761 91.2015 23.8333C91.4402 24.5386 91.8091 25.13 92.3083 25.6074ZM109.536 28V20.1549H108.397L104.735 28H102.57L106.704 19.2923L103.498 11.3333H105.614L108.479 18.5273H109.536V11.3333H111.62V18.5273H112.678L115.542 11.3333H117.658L114.452 19.2923L118.586 28H116.421L112.759 20.1549H111.62V28H109.536ZM130.378 28V15.4023H130.215L124.128 28H122.045V11.3333H124.128V23.931H124.291L130.394 11.3333H132.461V28H130.378ZM140.803 17.6484H144.709C145.23 17.6484 145.593 17.6213 145.799 17.5671C146.244 17.4586 146.597 17.2198 146.857 16.8509C147.118 16.482 147.248 16.0208 147.248 15.4674C147.248 14.9141 147.118 14.4529 146.857 14.084C146.597 13.7151 146.244 13.4763 145.799 13.3678C145.572 13.3136 145.208 13.2865 144.709 13.2865H140.803V17.6484ZM140.803 26.0469H144.058C144.676 26.0469 145.165 26.0035 145.523 25.9167C146.163 25.7539 146.662 25.3958 147.02 24.8424C147.389 24.2891 147.574 23.6163 147.574 22.8242C147.574 22.0213 147.389 21.3431 147.02 20.7897C146.651 20.2363 146.152 19.8837 145.523 19.7318C145.165 19.645 144.676 19.6016 144.058 19.6016H140.803V26.0469ZM138.719 28V11.3333H144.709C145.382 11.3333 145.919 11.3822 146.32 11.4798C147.21 11.6968 147.932 12.1634 148.485 12.8796C149.049 13.5849 149.331 14.4475 149.331 15.4674C149.331 16.1619 149.163 16.7912 148.827 17.3555C148.501 17.9089 148.062 18.3537 147.508 18.6901C148.941 19.7209 149.657 21.099 149.657 22.8242C149.657 24.0938 149.331 25.1734 148.68 26.0632C148.029 26.9421 147.167 27.5226 146.092 27.8047C145.604 27.9349 144.926 28 144.058 28H138.719ZM163.728 19.6667H160.537C160.136 19.6667 159.821 19.6775 159.593 19.6992C159.376 19.7209 159.1 19.8023 158.763 19.9434C158.427 20.0736 158.129 20.2743 157.868 20.5456C157.261 21.1858 156.957 22.0267 156.957 23.0684C156.957 23.9907 157.217 24.7611 157.738 25.3796C158.27 25.998 158.986 26.3073 159.886 26.3073C160.407 26.3073 160.868 26.2313 161.27 26.0794C161.682 25.9275 162.019 25.7376 162.279 25.5098C162.55 25.2819 162.778 24.9835 162.963 24.6146C163.158 24.2457 163.299 23.9039 163.386 23.5892C163.483 23.2637 163.559 22.8785 163.614 22.4336C163.668 21.9887 163.7 21.6252 163.711 21.3431C163.722 21.061 163.728 20.7246 163.728 20.334V19.6667ZM161.123 11.0729C162.057 11.0729 162.876 11.2194 163.581 11.5124C164.286 11.7945 164.867 12.337 165.323 13.14C165.648 13.7151 165.811 14.6048 165.811 15.8092V28H163.728V25.998H163.565C162.469 27.5063 161.113 28.2604 159.496 28.2604C158.194 28.2604 157.098 27.7721 156.208 26.7956C155.318 25.819 154.873 24.5875 154.873 23.1009C154.873 21.5384 155.351 20.2797 156.306 19.3249C156.653 18.9885 157.022 18.7118 157.412 18.4948C157.803 18.2778 158.21 18.1313 158.633 18.0553C159.067 17.9685 159.404 17.9197 159.642 17.9089C159.892 17.8872 160.201 17.8763 160.57 17.8763H163.728V15.8906C163.728 14.9466 163.63 14.3064 163.435 13.9701C163.25 13.6554 162.984 13.4221 162.637 13.2702C162.301 13.1074 161.796 13.026 161.123 13.026C159.821 13.026 158.259 13.14 156.436 13.3678V11.3822C158.226 11.176 159.789 11.0729 161.123 11.0729ZM179.263 13.5469C178.72 13.1997 178.059 13.026 177.277 13.026C176.496 13.026 175.829 13.1997 175.275 13.5469C174.733 13.8941 174.342 14.377 174.104 14.9954C173.876 15.5163 173.729 16.4223 173.664 17.7135H180.891C180.826 16.4223 180.679 15.5163 180.451 14.9954C180.212 14.377 179.816 13.8941 179.263 13.5469ZM174.022 11.9844C174.923 11.3767 176.008 11.0729 177.277 11.0729C178.547 11.0729 179.627 11.3767 180.516 11.9844C181.417 12.592 182.046 13.3787 182.404 14.3444C182.589 14.811 182.724 15.3589 182.811 15.9883C182.909 16.6176 182.963 17.1764 182.974 17.6647C182.996 18.1421 183.007 18.8095 183.007 19.6667H173.632C173.632 20.4045 173.637 20.9742 173.648 21.3757C173.659 21.7663 173.702 22.2383 173.778 22.7917C173.865 23.3451 173.99 23.8062 174.152 24.1751C174.782 25.5966 175.932 26.3073 177.603 26.3073C178.862 26.3073 180.489 26.1934 182.486 25.9655V27.9186C180.511 28.1465 178.883 28.2604 177.603 28.2604C176.257 28.2604 175.123 27.9457 174.201 27.3164C173.279 26.6871 172.612 25.8678 172.199 24.8587C171.917 24.1751 171.738 23.4427 171.662 22.6615C171.586 21.8802 171.548 20.8819 171.548 19.6667C171.548 18.8095 171.554 18.1421 171.564 17.6647C171.586 17.1764 171.64 16.6176 171.727 15.9883C171.825 15.3589 171.966 14.811 172.15 14.3444C172.508 13.3787 173.132 12.592 174.022 11.9844ZM201.244 11.3333V13.2865H194.994V28H192.91V13.2865H186.66V11.3333H201.244ZM229.174 5.62044C227.34 8.74544 225.989 11.5178 225.121 13.9375L225.267 14.0026C226.005 13.4384 226.879 13.1562 227.888 13.1562C229.049 13.1562 230.025 13.4492 230.817 14.0352C231.62 14.6211 232.206 15.4132 232.575 16.4115C232.716 16.8021 232.819 17.2524 232.884 17.7624C232.96 18.2724 233.004 18.7118 233.015 19.0807C233.025 19.4497 233.031 19.9922 233.031 20.7083C233.031 22.6289 232.857 24.0612 232.51 25.0052C232.152 25.9926 231.555 26.7847 230.72 27.3815C229.895 27.9674 228.897 28.2604 227.725 28.2604C226.412 28.2604 225.327 27.9729 224.47 27.3978C223.613 26.8118 222.994 26.0143 222.614 25.0052C222.397 24.4301 222.256 23.8333 222.191 23.2148C222.126 22.5855 222.093 21.75 222.093 20.7083C222.093 17.681 222.56 14.9575 223.493 12.5378C224.394 10.1723 225.69 7.53559 227.383 4.6276L229.174 5.62044ZM224.226 18.9505C224.193 19.428 224.177 20.0139 224.177 20.7083C224.177 21.4028 224.193 21.9941 224.226 22.4824C224.269 22.9599 224.356 23.459 224.486 23.9798C224.627 24.5007 224.817 24.9184 225.056 25.2331C225.294 25.5477 225.625 25.8082 226.049 26.0143C226.472 26.2096 226.976 26.3073 227.562 26.3073C228.148 26.3073 228.653 26.2096 229.076 26.0143C229.499 25.8082 229.83 25.5477 230.069 25.2331C230.307 24.9184 230.492 24.5007 230.622 23.9798C230.763 23.459 230.85 22.9599 230.882 22.4824C230.926 21.9941 230.948 21.4028 230.948 20.7083C230.948 20.0139 230.926 19.428 230.882 18.9505C230.85 18.4622 230.763 17.9577 230.622 17.4368C230.492 16.916 230.307 16.4983 230.069 16.1836C229.83 15.8689 229.499 15.6139 229.076 15.4186C228.653 15.2125 228.148 15.1094 227.562 15.1094C226.976 15.1094 226.472 15.2125 226.049 15.4186C225.625 15.6139 225.294 15.8689 225.056 16.1836C224.817 16.4983 224.627 16.916 224.486 17.4368C224.356 17.9577 224.269 18.4622 224.226 18.9505ZM237.727 7.03646V5.08333H250.227V6.54818L242.609 28H240.51L248.029 7.19922V7.03646H237.727ZM280.435 21.6849H277.196C277.12 21.6849 276.99 21.6849 276.805 21.6849C276.632 21.674 276.496 21.6686 276.398 21.6686L273.729 28H271.564L274.364 21.1966C273.518 20.806 272.845 20.2038 272.346 19.39C271.847 18.5653 271.597 17.605 271.597 16.5091C271.597 15.2396 271.923 14.1654 272.574 13.2865C273.225 12.3967 274.087 11.8108 275.161 11.5286C275.65 11.3984 276.328 11.3333 277.196 11.3333H282.535V28H280.435V21.6849ZM280.451 19.7318V13.2865H277.196C276.577 13.2865 276.089 13.3299 275.731 13.4167C275.091 13.5794 274.586 13.9375 274.217 14.4909C273.859 15.0443 273.68 15.717 273.68 16.5091C273.68 17.3012 273.859 17.974 274.217 18.5273C274.586 19.0807 275.091 19.4388 275.731 19.6016C276.089 19.6884 276.577 19.7318 277.196 19.7318H280.451ZM297.24 18.8366C298.9 19.6395 299.73 21.023 299.73 22.987C299.73 24.5386 299.177 25.8082 298.07 26.7956C296.963 27.7721 295.553 28.2604 293.838 28.2604C292.352 28.2604 290.67 28.2062 288.793 28.0977V26.1445C290.724 26.253 292.406 26.3073 293.838 26.3073C294.978 26.3073 295.894 26.0089 296.589 25.4121C297.294 24.8153 297.647 24.0069 297.647 22.987C297.647 22.1732 297.414 21.4842 296.947 20.9199C296.48 20.3448 295.873 19.9759 295.124 19.8132C294.679 19.7155 294.012 19.6667 293.122 19.6667H290.876V17.7135H293.138C294.082 17.7135 294.804 17.6647 295.303 17.5671C295.9 17.4477 296.41 17.1927 296.833 16.8021C297.267 16.4006 297.484 15.9178 297.484 15.3535C297.484 14.7242 297.164 14.1816 296.524 13.7259C295.894 13.2593 295.005 13.026 293.854 13.026C292.802 13.026 291.223 13.1128 289.118 13.2865V11.3333C290.974 11.1597 292.552 11.0729 293.854 11.0729C295.547 11.0729 296.92 11.4852 297.972 12.3099C299.036 13.1345 299.567 14.1491 299.567 15.3535C299.567 16.9269 298.792 18.0336 297.24 18.6738V18.8366ZM307.567 17.6484H308.495C309.363 17.6484 310.041 17.7135 310.529 17.8438C311.604 18.1259 312.466 18.7118 313.117 19.6016C313.768 20.4805 314.094 21.5547 314.094 22.8242C314.094 24.0938 313.768 25.1734 313.117 26.0632C312.466 26.9421 311.604 27.5226 310.529 27.8047C310.041 27.9349 309.363 28 308.495 28H305.467V11.3333H307.567V17.6484ZM307.551 19.6016V26.0469H308.495C309.113 26.0469 309.602 26.0035 309.96 25.9167C310.6 25.7539 311.099 25.3958 311.457 24.8424C311.826 24.2891 312.01 23.6163 312.01 22.8242C312.01 22.0321 311.826 21.3594 311.457 20.806C311.099 20.2526 310.6 19.8945 309.96 19.7318C309.602 19.645 309.113 19.6016 308.495 19.6016H307.551ZM317.967 11.3333V28H315.884V11.3333H317.967ZM324.226 28H322.142V11.3333H324.226V18.1204L330.736 11.3333H333.519L327.611 17.502L334.284 28H331.745L326.26 18.8854L324.226 20.9199V28ZM340.852 12.0332C341.73 11.393 342.788 11.0729 344.025 11.0729C345.262 11.0729 346.315 11.393 347.183 12.0332C348.062 12.6734 348.702 13.498 349.104 14.5072C349.386 15.2016 349.565 15.934 349.641 16.7044C349.717 17.4748 349.755 18.4622 349.755 19.6667C349.755 20.8711 349.717 21.8585 349.641 22.6289C349.565 23.3993 349.386 24.1317 349.104 24.8262C348.702 25.8353 348.062 26.6599 347.183 27.3001C346.315 27.9403 345.262 28.2604 344.025 28.2604C342.788 28.2604 341.73 27.9403 340.852 27.3001C339.984 26.6599 339.349 25.8353 338.947 24.8262C338.665 24.1317 338.486 23.3993 338.41 22.6289C338.334 21.8585 338.296 20.8711 338.296 19.6667C338.296 18.4622 338.334 17.4748 338.41 16.7044C338.486 15.934 338.665 15.2016 338.947 14.5072C339.349 13.498 339.984 12.6734 340.852 12.0332ZM347.15 15.1582C346.575 13.7368 345.534 13.026 344.025 13.026C342.517 13.026 341.475 13.7368 340.9 15.1582C340.553 16.0263 340.38 17.5291 340.38 19.6667C340.38 21.8043 340.553 23.3071 340.9 24.1751C341.475 25.5966 342.517 26.3073 344.025 26.3073C345.534 26.3073 346.575 25.5966 347.15 24.1751C347.498 23.3071 347.671 21.8043 347.671 19.6667C347.671 17.5291 347.498 16.0263 347.15 15.1582ZM357.575 17.6484H361.481C362.002 17.6484 362.366 17.6213 362.572 17.5671C363.017 17.4586 363.369 17.2198 363.63 16.8509C363.89 16.482 364.021 16.0208 364.021 15.4674C364.021 14.9141 363.89 14.4529 363.63 14.084C363.369 13.7151 363.017 13.4763 362.572 13.3678C362.344 13.3136 361.981 13.2865 361.481 13.2865H357.575V17.6484ZM357.575 26.0469H360.83C361.449 26.0469 361.937 26.0035 362.295 25.9167C362.935 25.7539 363.435 25.3958 363.793 24.8424C364.162 24.2891 364.346 23.6163 364.346 22.8242C364.346 22.0213 364.162 21.3431 363.793 20.7897C363.424 20.2363 362.925 19.8837 362.295 19.7318C361.937 19.645 361.449 19.6016 360.83 19.6016H357.575V26.0469ZM355.492 28V11.3333H361.481C362.154 11.3333 362.691 11.3822 363.093 11.4798C363.983 11.6968 364.704 12.1634 365.257 12.8796C365.822 13.5849 366.104 14.4475 366.104 15.4674C366.104 16.1619 365.936 16.7912 365.599 17.3555C365.274 17.9089 364.834 18.3537 364.281 18.6901C365.713 19.7209 366.429 21.099 366.429 22.8242C366.429 24.0938 366.104 25.1734 365.453 26.0632C364.802 26.9421 363.939 27.5226 362.865 27.8047C362.377 27.9349 361.698 28 360.83 28H355.492Z" fill="white"/>
</svg>
