<svg width="766" height="533" viewBox="0 0 766 533" fill="none" xmlns="http://www.w3.org/2000/svg">
<path d="M63.0365 401.75H200.536V97.5833H100.536C100.363 154.875 97.5851 208.347 92.2031 258C86.8212 307.653 77.099 355.569 63.0365 401.75ZM28.9219 401.75C44.5469 352.097 54.7899 301.229 59.651 249.146C64.6858 196.889 67.2031 135.951 67.2031 66.3333H233.87V401.75H267.203V499.667H233.87V433H33.8698V499.667H0.536458V401.75H28.9219Z" fill="#434447"/>
<path d="M504.359 433C519.811 287.514 555.227 165.292 610.609 66.3333H644.464C699.845 165.292 735.262 287.514 750.714 433H715.557C714.689 422.41 713.561 411.906 712.172 401.49C710.783 390.899 708.7 377.531 705.922 361.385C703.318 345.24 701.755 335.431 701.234 331.958H553.839C552.97 337.34 551.668 345.326 549.932 355.917C548.196 366.333 546.807 374.927 545.766 381.698C544.724 388.469 543.595 396.628 542.38 406.177C541.165 415.726 540.21 424.667 539.516 433H504.359ZM695.245 300.708C685.523 258 675.453 220.326 665.036 187.688C654.793 155.049 642.727 124.927 628.839 97.3229H626.234C612.345 124.927 600.193 155.049 589.776 187.688C579.533 220.326 569.55 258 559.828 300.708H695.245Z" fill="#434447"/>
<line x1="152" y1="23" x2="152" y2="475" stroke="black" stroke-width="2"/>
<line x1="629" y1="23" x2="629" y2="475" stroke="black" stroke-width="2"/>
<line x1="151" y1="432" x2="766" y2="432" stroke="black" stroke-width="2"/>
<line x1="151" y1="248" x2="628" y2="248" stroke="black" stroke-width="2"/>
<rect x="149" y="243" width="7" height="10" fill="black"/>
<rect x="386" y="243" width="7" height="10" fill="black"/>
<rect x="149" y="427" width="7" height="10" fill="black"/>
<rect x="386" y="428" width="7" height="10" fill="black"/>
<rect x="626" y="243" width="7" height="10" fill="black"/>
</svg>
