<svg width="365" height="486" viewBox="0 0 365 486" fill="none" xmlns="http://www.w3.org/2000/svg">
<g clip-path="url(#clip0_207_2023)">
<rect width="365" height="486" fill="white"/>
<path d="M268.779 112.917C311.747 112.917 349.942 126.589 383.362 153.932C416.782 180.842 441.088 218.602 456.279 267.214C461.921 285.443 466.044 305.842 468.648 328.411C471.687 350.981 473.423 370.295 473.857 386.354C474.291 401.979 474.508 425.417 474.508 456.667C474.508 487.917 474.291 511.571 473.857 527.63C473.423 543.255 471.687 562.352 468.648 584.922C466.044 607.491 461.921 627.891 456.279 646.12C441.088 694.731 416.782 732.708 383.362 760.052C349.942 786.962 311.747 800.417 268.779 800.417C213.223 800.417 165.914 769.818 126.852 708.62H120.341V790H37.0078V-126.667H120.341V204.714H126.852C165.914 143.516 213.223 112.917 268.779 112.917ZM329.326 219.688C309.36 200.59 284.838 191.042 255.758 191.042C226.678 191.042 201.938 200.59 181.539 219.688C161.574 238.351 146.817 261.788 137.268 290C125.984 324.288 120.341 379.844 120.341 456.667C120.341 533.49 125.984 589.045 137.268 623.333C146.817 651.545 161.574 675.2 181.539 694.297C201.938 712.96 226.678 722.292 255.758 722.292C284.838 722.292 309.36 712.96 329.326 694.297C349.725 675.2 364.699 651.545 374.247 623.333C385.532 589.045 391.174 533.49 391.174 456.667C391.174 379.844 385.532 324.288 374.247 290C364.699 261.788 349.725 238.351 329.326 219.688Z" fill="#434447"/>
</g>
<rect x="1" y="1" width="363" height="484" stroke="black" stroke-width="2"/>
<defs>
<clipPath id="clip0_207_2023">
<rect width="365" height="486" fill="white"/>
</clipPath>
</defs>
</svg>
