<svg width="785" height="533" viewBox="0 0 785 533" fill="none" xmlns="http://www.w3.org/2000/svg">
<path d="M80.2031 433H46.8698V66.3333H80.2031L162.234 229.875H165.099L246.87 66.3333H280.203V433H246.87V133.521H244.266L177.859 266.333H149.214L82.8073 133.521H80.2031V433Z" fill="#434447"/>
<path d="M635.391 199.667H667.682L712.995 378.312H715.599C730.009 296.542 737.214 192.549 737.214 66.3333H770.547C770.547 188.556 758.481 310.778 734.349 433H702.057L652.839 241.333H650.234L601.016 433H568.724C544.592 310.778 532.526 188.556 532.526 66.3333H565.859C565.859 191.16 573.064 295.153 587.474 378.312H590.078L635.391 199.667Z" fill="#434447"/>
<path d="M8.70711 104.293C8.31658 103.902 7.68342 103.902 7.29289 104.293L0.928932 110.657C0.538408 111.047 0.538408 111.681 0.928932 112.071C1.31946 112.462 1.95262 112.462 2.34315 112.071L8 106.414L13.6569 112.071C14.0474 112.462 14.6805 112.462 15.0711 112.071C15.4616 111.681 15.4616 111.047 15.0711 110.657L8.70711 104.293ZM509.106 104.276C508.707 103.895 508.074 103.91 507.693 104.31L501.482 110.824C501.101 111.224 501.116 111.857 501.516 112.238C501.916 112.619 502.549 112.604 502.93 112.204L508.45 106.414L514.24 111.934C514.64 112.315 515.273 112.3 515.654 111.9C516.035 111.501 516.02 110.868 515.62 110.486L509.106 104.276ZM514.045 236.022L515.042 235.949L514.045 236.022ZM9 418L9 105H7L7 418H9ZM534 412.052C534.99 411.914 534.99 411.913 534.99 411.912C534.99 411.912 534.99 411.91 534.99 411.909C534.989 411.906 534.989 411.901 534.988 411.894C534.986 411.881 534.983 411.862 534.98 411.836C534.972 411.784 534.962 411.707 534.948 411.605C534.919 411.401 534.877 411.096 534.822 410.696C534.711 409.896 534.548 408.713 534.339 407.182C533.921 404.122 533.319 399.672 532.58 394.117C531.102 383.006 529.079 367.474 526.899 349.786C522.538 314.405 517.552 270.418 515.042 235.949L513.047 236.094C515.561 270.616 520.553 314.644 524.914 350.03C527.095 367.726 529.119 383.265 530.597 394.381C531.337 399.938 531.94 404.39 532.358 407.453C532.567 408.984 532.73 410.168 532.841 410.97C532.896 411.37 532.938 411.675 532.966 411.88C532.981 411.982 532.992 412.06 532.999 412.112C533.002 412.138 533.005 412.157 533.007 412.17C533.008 412.177 533.008 412.182 533.009 412.185C533.009 412.187 533.009 412.188 533.009 412.189C533.01 412.189 533.01 412.19 534 412.052ZM515.042 235.949C513.184 210.427 511.777 177.687 510.835 151.319C510.364 138.137 510.009 126.551 509.772 118.26C509.654 114.115 509.565 110.793 509.505 108.509C509.476 107.366 509.453 106.483 509.438 105.885C509.431 105.587 509.425 105.359 509.422 105.206C509.42 105.13 509.418 105.073 509.417 105.034C509.417 105.015 509.417 105 509.416 104.991C509.416 104.986 509.416 104.982 509.416 104.98C509.416 104.979 509.416 104.978 509.416 104.977C509.416 104.976 509.416 104.976 508.416 105C507.417 105.024 507.417 105.024 507.417 105.025C507.417 105.025 507.417 105.026 507.417 105.028C507.417 105.03 507.417 105.034 507.417 105.039C507.417 105.048 507.418 105.063 507.418 105.082C507.419 105.121 507.42 105.179 507.422 105.255C507.426 105.408 507.432 105.636 507.439 105.935C507.454 106.533 507.476 107.417 507.506 108.561C507.565 110.847 507.655 114.17 507.773 118.317C508.01 126.611 508.365 138.203 508.836 151.39C509.778 177.763 511.186 210.534 513.047 236.094L515.042 235.949Z" fill="black"/>
</svg>
