<svg width="267" height="533" viewBox="0 0 267 533" fill="none" xmlns="http://www.w3.org/2000/svg">
<path d="M211.707 42.7071C212.098 42.3166 212.098 41.6834 211.707 41.2929L205.343 34.9289C204.953 34.5384 204.319 34.5384 203.929 34.9289C203.538 35.3194 203.538 35.9526 203.929 36.3431L209.586 42L203.929 47.6568C203.538 48.0474 203.538 48.6805 203.929 49.0711C204.319 49.4616 204.953 49.4616 205.343 49.0711L211.707 42.7071ZM50 43L211 43L211 41L50 41L50 43Z" fill="black"/>
<path d="M191.87 321.281C191.87 292.635 187.356 271.889 178.328 259.042C169.3 246.194 154.023 239.771 132.495 239.771C125.55 239.771 118.78 240.726 112.182 242.635L96.8177 222.844L176.245 97.5833H50.2031V66.3333H216.87V94.9792L135.62 214.771L137.443 216.594C143.172 214.858 148.814 213.99 154.37 213.99C165.481 213.99 175.29 216.16 183.797 220.5C192.304 224.667 199.075 230.135 204.109 236.906C209.318 243.677 213.571 251.924 216.87 261.646C220.168 271.368 222.339 281.09 223.38 290.812C224.595 300.361 225.203 310.691 225.203 321.802C225.203 361.038 217.217 390.118 201.245 409.042C185.273 427.792 161.314 437.167 129.37 437.167C108.189 437.167 81.8003 434.476 50.2031 429.094V397.323C80.4115 403.052 106.8 405.917 129.37 405.917C139.613 405.917 148.467 404.441 155.932 401.49C163.571 398.538 169.648 394.632 174.161 389.771C178.675 384.736 182.234 378.486 184.839 371.021C187.616 363.382 189.439 355.743 190.307 348.104C191.349 340.292 191.87 331.351 191.87 321.281Z" fill="#434447"/>
</svg>
