<svg width="365" height="486" viewBox="0 0 365 486" fill="none" xmlns="http://www.w3.org/2000/svg">
<g clip-path="url(#clip0_207_2017)">
<rect width="365" height="486" fill="white"/>
<path d="M36.3203 426.417C5.07031 426.417 -23.5755 420.123 -49.6172 407.536C-75.6589 394.95 -97.1432 378.023 -114.07 356.755C-124.921 343.3 -133.602 329.411 -140.112 315.089C-146.622 300.766 -151.18 284.924 -153.784 267.562C-155.954 250.201 -157.473 235.878 -158.341 224.594C-158.775 213.309 -158.992 197.467 -158.992 177.068V-250.667H-75.6588V177.068C-75.6588 200.939 -75.4418 218.734 -75.0078 230.453C-74.1398 242.172 -71.5356 255.41 -67.1953 270.167C-62.421 284.49 -55.4766 297.076 -46.362 307.927C-22.9245 334.837 8.97657 348.292 49.3412 348.292C89.7057 348.292 121.607 334.837 145.044 307.927C154.159 297.076 160.886 284.49 165.227 270.167C170.001 255.41 172.605 242.172 173.039 230.453C173.907 218.734 174.341 200.939 174.341 177.068V-250.667H257.674V416H174.341V343.083H167.831C151.772 368.257 131.806 388.439 107.935 403.63C84.4974 418.821 60.6259 426.417 36.3203 426.417Z" fill="#434447"/>
</g>
<rect x="1" y="1" width="363" height="484" stroke="black" stroke-width="2"/>
<defs>
<clipPath id="clip0_207_2017">
<rect width="365" height="486" fill="white"/>
</clipPath>
</defs>
</svg>
